<?xml version="1.0" encoding="UTF-8" standalone="no"?>
<!-- Uploaded to: SVG Repo, www.svgrepo.com, Generator: SVG Repo Mixer Tools -->

<svg
   fill="#000000"
   width="800px"
   height="800px"
   viewBox="-4 -2 24 24"
   preserveAspectRatio="xMinYMin"
   class="jam jam-fork"
   version="1.1"
   id="svg1"
   sodipodi:docname="fork.svg"
   inkscape:version="1.4.2 (f4327f4, 2025-05-13)"
   xmlns:inkscape="http://www.inkscape.org/namespaces/inkscape"
   xmlns:sodipodi="http://sodipodi.sourceforge.net/DTD/sodipodi-0.dtd"
   xmlns="http://www.w3.org/2000/svg"
   xmlns:svg="http://www.w3.org/2000/svg">
  <defs
     id="defs1" />
  <sodipodi:namedview
     id="namedview1"
     pagecolor="#ffffff"
     bordercolor="#000000"
     borderopacity="0.25"
     inkscape:showpageshadow="2"
     inkscape:pageopacity="0.0"
     inkscape:pagecheckerboard="0"
     inkscape:deskcolor="#d1d1d1"
     inkscape:zoom="1.00875"
     inkscape:cx="399.50434"
     inkscape:cy="400"
     inkscape:window-width="1920"
     inkscape:window-height="1009"
     inkscape:window-x="1912"
     inkscape:window-y="-8"
     inkscape:window-maximized="1"
     inkscape:current-layer="svg1" />
  <path
     d="m 8.2974362,17.536087 a 0.69149319,0.96431677 0 1 0 0,-1.928632 0.69149319,0.96431677 0 0 0 0,1.928632 z M 9.0117485,13.85529 A 2.0751711,2.8939146 0 1 1 7.6059431,13.84276 v -1.00964 c 0,-0.07136 0.00207,-0.142719 0.00554,-0.213113 A 0.69149319,0.96431677 0 0 0 7.2920051,12.005732 L 5.1580572,10.226566 A 2.0744795,2.8929503 0 0 1 4.1484771,7.7434506 V 5.799388 a 2.0751711,2.8939146 0 1 1 1.3829863,0 v 1.9440626 a 0.69149319,0.96431677 0 0 0 0.3367572,0.8273838 l 2.133948,1.7801286 a 2.0744795,2.8929503 0 0 1 0.3063313,0.31244 2.0744795,2.8929503 0 0 1 0.3070232,-0.31244 L 10.749471,8.5708344 A 0.69149319,0.96431677 0 0 0 11.086228,7.7434506 V 5.8109599 a 2.0751711,2.8939146 0 0 1 0.668675,-5.63257434 2.0744795,2.8929503 0 0 1 0.714312,5.60943064 v 1.9556344 a 2.0744795,2.8929503 0 0 1 -1.00958,2.4831154 l -2.1339483,1.780129 a 0.69149319,0.96431677 0 0 0 -0.31947,0.61427 c 0.00346,0.07039 0.00554,0.141755 0.00554,0.21215 z M 4.8399703,4.0356527 a 0.69149319,0.96431677 0 1 0 0,-1.9286335 0.69149319,0.96431677 0 0 0 0,1.9286335 z m 6.9149327,0 a 0.69149319,0.96431677 0 1 0 0,-1.9286335 0.69149319,0.96431677 0 0 0 0,1.9286335 z"
     id="path1"
     style="stroke-width:0.81659" />
</svg>
