<?xml version="1.0" encoding="UTF-8" standalone="no"?>
<svg
   version="1.1"
   x="0px"
   y="0px"
   viewBox="0 0 81.4 124.5"
   style="enable-background:new 0 0 81.4 99.6;"
   xml:space="preserve"
   id="svg12"
   sodipodi:docname="Ruby and Hahli.svg"
   inkscape:version="1.4.3 (0d15f75, 2025-12-25)"
   xmlns:inkscape="http://www.inkscape.org/namespaces/inkscape"
   xmlns:sodipodi="http://sodipodi.sourceforge.net/DTD/sodipodi-0.dtd"
   xmlns="http://www.w3.org/2000/svg"
   xmlns:svg="http://www.w3.org/2000/svg"
   xmlns:rdf="http://www.w3.org/1999/02/22-rdf-syntax-ns#"
   xmlns:cc="http://creativecommons.org/ns#"
   xmlns:dc="http://purl.org/dc/elements/1.1/"><defs
     id="defs12" /><sodipodi:namedview
     id="namedview12"
     pagecolor="#ffffff"
     bordercolor="#000000"
     borderopacity="0.25"
     inkscape:showpageshadow="2"
     inkscape:pageopacity="0.0"
     inkscape:pagecheckerboard="0"
     inkscape:deskcolor="#d1d1d1"
     inkscape:zoom="6.4819277"
     inkscape:cx="19.978625"
     inkscape:cy="41.268587"
     inkscape:window-width="1920"
     inkscape:window-height="1009"
     inkscape:window-x="1912"
     inkscape:window-y="-8"
     inkscape:window-maximized="1"
     inkscape:current-layer="svg12" /><title
     id="title1">bwcatwoman4</title><g
     id="g11"
     transform="matrix(0.96853925,0.04533559,-0.04053069,0.92004294,4.1545854,2.3696792)"><g
       id="g10"><path
         d="m 81.4,69.8 c 0,-0.1 0,-0.3 0,-0.4 0,-0.2 0,-0.4 -0.1,-0.7 0,-0.2 -0.1,-0.3 -0.2,-0.5 -0.1,-0.2 -0.2,-0.3 -0.4,-0.5 -0.1,-0.1 -0.2,-0.1 -0.3,-0.2 -0.1,0 -0.3,-0.1 -0.4,-0.1 -0.8,0.1 -1.5,0.3 -2.1,0.7 -1,0.5 -1.9,1 -2.7,1.7 0,0 -0.1,0 -0.1,0.1 -0.2,-0.5 -0.4,-1 -0.5,-1.5 C 73.8,66 73.3,63.6 73,61.1 72.5,57.4 72,52.1 71.7,43.7 71.6,40.9 71.5,37 71.4,32.3 c 0,0 0,-0.1 0,-0.1 0,-0.3 0,-0.6 0,-1 C 71.4,22.8 68,14.8 62,9 49.3,-3.1 29.2,-3.1 16.5,9.2 10.5,15 7.1,23 7.1,31.3 c 0,0.3 0,0.7 0,1 0,0 0,0.1 0,0.1 v 35.3 c 0,0 0,0 0,0 -0.8,0 -1.6,0.1 -2.4,0.4 -1.4,0.5 -2.6,1.3 -3.5,2.5 -0.8,1.1 -1.2,2.3 -1.2,3.6 0,0.4 0.1,0.8 0.2,1.2 0.1,0.4 0.4,0.7 0.7,1 0.4,0.3 0.8,0.4 1.2,0.5 h 0.3 c 0.5,0 0.9,-0.1 1.4,-0.3 0.6,-0.3 1.1,-0.7 1.6,-1 0.4,-0.3 0.9,-0.5 1.3,-0.5 0.1,0 0.2,0 0.3,0 0,0 0.1,0 0.1,0 v 9.7 c -0.3,0.7 -0.5,1.5 -0.5,2.3 v 0.1 c 0.1,2.1 1.1,4.1 2.7,5.4 2.3,2.1 5.7,3.5 9,4.5 2.7,0.8 5.5,1.3 8.4,1.7 4.6,0.6 9.3,0.9 13.9,0.9 5.8,0 11.5,-0.5 17.2,-1.6 2.9,-0.5 5.8,-1.4 8.5,-2.6 1.4,-0.6 2.8,-1.5 4,-2.5 1.2,-1 2.1,-2.2 2.6,-3.6 0.1,-0.3 0.2,-0.6 0.2,-0.9 0.3,-0.3 0.6,-0.7 0.8,-1 0.6,-0.7 1.1,-1.5 1.6,-2.3 0.7,0.5 1.5,1 2.2,1.4 0.2,0.1 0.4,0.1 0.5,-0.1 0.1,-0.2 0.1,-0.4 -0.1,-0.5 -0.7,-0.5 -1.5,-1 -2.2,-1.4 0.2,-0.4 0.5,-0.8 0.7,-1.2 0.9,0.3 1.8,0.6 2.6,1 0.2,0.1 0.4,0 0.5,-0.2 0.1,-0.2 0,-0.4 -0.2,-0.5 -0.8,-0.3 -1.7,-0.6 -2.5,-0.9 1.6,-2.9 2.9,-5.9 3.8,-9.1 0.3,-1.4 0.5,-2.6 0.6,-3.9 z m -19.5,2.7 c 0.8,0.1 1.5,-0.5 1.6,-1.3 0,-0.4 -0.1,-0.8 -0.3,-1.1 0.9,0.3 1.5,1.2 1.5,2.1 v 0.2 c -0.1,1.2 -1.1,2.1 -2.3,2.1 H 62.2 C 61,74.4 60.1,73.4 60.1,72.2 V 72 72 c 0,-0.5 0.2,-0.9 0.5,-1.3 0,0.1 0,0.1 0,0.2 -0.1,0.9 0.5,1.6 1.3,1.6 z m 4.3,8.9 c -0.1,0.1 -0.2,0.2 -0.2,0.3 -0.5,0.5 -1,0.9 -1.6,1.3 -0.3,0.1 -0.5,0.3 -0.8,0.4 -0.4,0.2 -0.9,0.3 -1.4,0.3 -0.3,0 -0.6,-0.1 -0.9,-0.3 -0.3,-0.3 -0.5,-0.6 -0.6,-1 0,-0.2 0,-0.3 0,-0.5 0,-0.9 0.3,-1.9 0.8,-2.7 0,0 0.1,-0.1 0.1,-0.1 0.4,-0.7 0.9,-1.3 1.6,-1.7 0,0 0,0 0,0 0.3,-0.1 0.6,-0.2 1,-0.2 0.6,0 1.2,0.2 1.7,0.5 0.5,0.3 0.8,0.6 1.1,1.1 0.1,0.2 0.1,0.4 0.1,0.6 -0.1,0.7 -0.4,1.4 -0.9,2 z m -45,-44 c 0,0.1 0.1,0.1 0.1,0.2 0.3,0.3 0.8,0.2 1.1,-0.1 1,-1.1 2.4,-1.7 3.8,-1.7 0.1,0 0.3,0 0.4,0 1.4,0 2.7,0.3 4,0.9 0.4,0.2 0.8,0 1,-0.4 0.2,-0.4 0,-0.8 -0.4,-1 -1.4,-0.7 -3,-1 -4.6,-1 -0.2,0 -0.4,0 -0.5,0 -1.5,0.1 -2.9,0.6 -4,1.5 1,-2 1.8,-4 2.4,-6.1 0.5,-1.9 1,-3.8 1.2,-5.7 0.1,-0.1 0.2,-0.2 0.3,-0.2 3.4,2.6 7.2,4.8 11.2,6.3 5,2 10.3,3.1 15.7,3.1 2.4,0 4.8,-0.3 7.2,-0.8 1.5,3.3 2.4,6.9 2.4,10.5 0,0.4 0.4,0.7 0.8,0.7 0,0 0,0 0.1,0 0.2,0 0.3,0 0.4,0 2.1,0 3.7,1.7 3.7,3.8 0,1 -0.4,1.9 -1.1,2.6 -0.3,0.3 -0.6,0.5 -1,0.7 -1.1,-0.7 -2.5,-0.6 -3.5,0.1 0,0 -0.1,0 -0.1,0 -0.1,0.1 -0.3,0.2 -0.3,0.4 -0.6,0.6 -0.9,1.4 -0.9,2.2 0,0.1 0,0.1 0,0.2 0,0.4 -0.4,1 -0.6,1.3 -0.2,0.5 -0.4,0.9 -0.7,1.3 -0.5,0.9 -1,1.7 -1.6,2.5 -1.2,1.6 -2.5,3 -4.1,4.3 -0.9,0.8 -2,1.5 -3,2.1 -0.9,0.6 -1.9,1.1 -2.9,1.4 -1.4,0.4 -2.9,0.7 -4.3,1 -0.2,0 -0.3,0.2 -0.3,0.4 0,0.2 0.2,0.3 0.4,0.3 0.6,-0.1 1.1,-0.2 1.7,-0.4 0,0 0,0.1 0,0.1 v 3.4 c 0,0.3 0.2,0.6 0.5,0.7 0.7,0.3 1.5,0.6 2.1,1 -0.3,0.7 -0.4,1.5 -0.5,2.3 0,0.3 0,0.7 0.1,1 0.1,0.6 0.4,1.2 0.8,1.7 -0.8,0.6 -1.7,1.1 -2.7,1.4 -1.8,0.6 -3.8,0.9 -5.7,0.9 -2.5,0.1 -5,-0.5 -7.2,-1.5 -0.8,-0.4 -1.5,-0.9 -2.1,-1.5 -0.4,-0.4 -0.6,-1 -0.7,-1.6 0,-0.8 0.4,-1.5 1,-2 0.9,-0.8 2,-1.4 3.1,-1.7 0.3,-0.1 0.5,-0.4 0.5,-0.7 V 68 c 0.4,0.1 0.8,0.2 1.2,0.2 0.2,0 0.4,-0.1 0.4,-0.3 0,-0.2 -0.1,-0.4 -0.3,-0.4 C 35.1,67.4 34.6,67.3 34,67.1 33.4,67 32.8,66.9 32.3,66.8 31.4,66.5 30.5,66.1 29.7,65.6 28,64.7 26.4,63.6 25,62.4 c -2.9,-2.5 -5.1,-5.7 -6.5,-9.2 -0.3,-0.8 -0.6,-1.5 -0.8,-2.3 -0.1,-0.4 -0.5,-0.6 -0.9,-0.5 0,0 -0.1,0 -0.1,0.1 -0.2,0.1 -0.4,0.2 -0.6,0.3 -0.9,-0.5 -2,-0.6 -2.9,-0.3 -1.2,-0.6 -2,-1.9 -2,-3.3 0,-2 1.6,-3.7 3.7,-3.7 0.3,0 0.6,0 0.9,0.1 0.4,0.1 0.8,-0.1 0.9,-0.5 0,0 0,-0.1 0,-0.1 1.7,-1.4 3.1,-3.1 4.2,-5.1 0.2,-0.2 0.2,-0.4 0.3,-0.5 z m 44.1,15.8 c 0,0.9 -0.8,1.7 -1.7,1.7 -0.9,0 -1.7,-0.8 -1.7,-1.7 0,-0.9 0.8,-1.7 1.7,-1.7 0,0 0,0 0,0 1,0 1.7,0.8 1.7,1.7 z M 48.8,76.1 v 0 c -0.1,-0.2 -0.1,-0.5 -0.1,-0.7 0,-0.6 0.1,-1.2 0.3,-1.7 0,-0.1 0.1,-0.2 0.1,-0.3 0.2,-0.6 0.5,-1.1 0.9,-1.6 0.3,-0.4 0.8,-0.8 1.3,-0.9 0.2,-0.1 0.4,-0.1 0.6,-0.1 0.4,0 0.8,0.1 1.2,0.3 0.2,0.1 0.5,0.3 0.7,0.4 0.6,0.4 1,1 1.2,1.6 -0.3,0.3 -0.7,0.6 -0.9,0.9 -0.2,0.2 -0.4,0.5 -0.6,0.7 -0.2,0.2 -0.3,0.5 -0.5,0.9 0,0.1 -0.1,0.1 -0.1,0.2 -0.3,0.6 -0.7,1.1 -1.2,1.6 -0.4,0.3 -0.8,0.5 -1.3,0.5 h -0.2 c -0.4,-0.1 -0.7,-0.2 -1,-0.5 -0.1,-0.6 -0.3,-0.9 -0.4,-1.3 z m -7.4,6.5 c -0.8,0.1 -1.6,0.1 -2.5,0.1 -0.5,0 -1,0 -1.4,0 0.2,-0.3 0.4,-0.6 0.5,-0.9 0.6,0 1.2,0.1 1.8,0.1 0.4,0 0.8,0 1.2,0 0.1,0.2 0.2,0.4 0.4,0.7 z M 14.5,51.7 c 1,0 1.8,0.8 1.8,1.8 0,1 -0.8,1.8 -1.8,1.8 -1,0 -1.8,-0.8 -1.8,-1.8 -0.1,-1 0.7,-1.8 1.8,-1.8 z m 8.3,29.7 c 0.1,-1.8 0.8,-3.6 1.9,-5 1.1,-1.6 2.7,-2.7 4.6,-3.2 -0.6,0.7 -0.9,1.6 -0.9,2.5 0,1 0.4,1.9 1,2.6 1.1,1.2 2.6,2.1 4.2,2.6 1.2,0.4 2.4,0.7 3.6,0.8 -0.1,0.2 -0.3,0.5 -0.5,0.7 -1.1,1.3 -2.5,2.3 -4,2.9 -1.3,0.6 -2.8,1 -4.3,1 -1.5,0 -2.9,-0.4 -4.1,-1.4 -1,-0.9 -1.6,-2.1 -1.5,-3.5 z m 16.8,7.8 c -0.9,0 -1.6,-0.7 -1.6,-1.6 0,-0.9 0.7,-1.6 1.6,-1.6 0.9,0 1.6,0.7 1.6,1.6 0,0 0,0 0,0 -0.1,0.9 -0.8,1.6 -1.6,1.6 z m -1.7,5.1 c 0,-0.9 0.7,-1.6 1.6,-1.6 0.9,0 1.6,0.7 1.6,1.6 0,0.9 -0.7,1.6 -1.6,1.6 -0.9,0 -1.6,-0.7 -1.6,-1.6 z M 54.6,85 c -1.2,0.9 -2.6,1.4 -4.1,1.4 -1.5,0 -2.9,-0.4 -4.3,-1 -1.6,-0.6 -2.9,-1.6 -4,-2.9 -0.2,-0.2 -0.3,-0.5 -0.5,-0.7 2.1,-0.2 4.1,-0.7 5.9,-1.6 0.7,-0.3 1.3,-0.7 1.8,-1.2 0.2,0.1 0.5,0.2 0.7,0.2 0.1,0 0.2,0 0.4,0 0.8,0 1.6,-0.3 2.3,-0.9 0.6,-0.5 1.1,-1.1 1.4,-1.8 v 0 c 1.2,1.4 1.8,3.2 1.9,5 0.1,1.3 -0.5,2.6 -1.5,3.5 z M 7,73.6 c -0.1,0 -0.3,0 -0.4,0 -0.2,0 -0.4,0.1 -0.6,0.1 -0.7,0.2 -1.4,0.5 -2,1 -0.3,0.2 -0.6,0.4 -0.9,0.6 -0.2,0.1 -0.5,0.2 -0.7,0.2 H 2.3 C 2.1,75.5 2,75.4 1.8,75.3 1.7,75.2 1.6,75.1 1.6,74.9 1.5,74.7 1.5,74.4 1.5,74.2 c 0,-1 0.4,-1.9 0.9,-2.7 0.3,-0.4 0.7,-0.8 1.1,-1.1 0.5,-0.4 1,-0.6 1.6,-0.8 0.6,-0.2 1.3,-0.3 2,-0.3 2,0.1 3.9,0.7 5.5,1.8 0,0 0,0 0,0 1.7,1.1 3.1,2.7 4.1,4.5 0.1,0.1 0.1,0.2 0.2,0.3 -1.3,0.8 -2.6,1.6 -3.8,2.5 C 12.7,77.8 12.3,77.2 11.9,76.5 11.4,75.7 10.8,75 10,74.5 9.1,73.9 8.1,73.5 7,73.6 Z M 79.3,73.1 C 78,77.7 75.9,82 73,85.9 c -0.2,-1 -0.6,-2 -1.2,-2.9 -0.9,-1.4 -2,-2.6 -3.3,-3.6 0,0 0,0 0,-0.1 0,-0.1 0,-0.2 0,-0.3 0.5,0.9 1.4,1.5 2.4,1.6 0.1,0 0.2,0 0.3,0 1.6,0 2.9,-1.2 3,-2.7 v 0 c 0,-0.1 0,-0.2 0,-0.3 0,-1.6 -1.2,-2.9 -2.7,-3 -0.1,0 -0.2,0 -0.3,0 -1.6,0 -2.9,1.2 -3,2.7 0,0.1 0,0.2 0,0.3 0,0.1 0,0.2 0,0.3 -0.4,-0.7 -0.9,-1.2 -1.6,-1.6 -0.8,-0.4 -1.6,-0.7 -2.5,-0.7 -0.3,0 -0.7,0 -1,0.1 -0.3,-0.2 -0.6,-0.3 -0.8,-0.5 1.5,0 2.8,-1.2 2.9,-2.7 v 0 c 0,-0.1 0,-0.2 0,-0.3 0,-1.6 -1.2,-2.9 -2.7,-3 -0.1,0 -0.2,0 -0.3,0 -1.6,0 -2.9,1.2 -3,2.7 0,0.1 0,0.2 0,0.3 0,0.6 0.2,1.3 0.6,1.8 -1,-0.5 -2,-0.9 -3.1,-1.3 0.7,-1.5 1.4,-3 2.4,-4.4 0.9,-1.4 1.9,-2.7 2.9,-3.9 0.6,-0.8 1.3,-1.5 2,-2.1 0.2,-0.2 0.5,-0.4 0.7,-0.5 0.2,-0.1 0.4,-0.2 0.7,-0.3 v 0 0 c 0.1,0.2 0.1,0.4 0.2,0.6 0.1,0.5 0.1,1.1 0.1,1.6 0,1 -0.1,2 -0.3,3 -0.1,0.4 0.1,0.8 0.5,0.9 2.9,0.9 5.5,2.4 7.7,4.6 0.3,0.3 0.7,0.3 1,0 0.4,-0.4 0.8,-0.7 1.3,-1.1 0.8,-0.6 1.6,-1.1 2.5,-1.5 0.4,-0.2 0.8,-0.4 1.3,-0.5 0,0.1 0,0.2 0,0.3 0,0.1 0,0.2 0,0.4 0.1,1.1 -0.1,2.3 -0.4,3.3 z m -10.2,3.7 c 0.2,0.8 1.1,1.2 1.8,0.9 0.8,-0.2 1.2,-1.1 0.9,-1.8 -0.1,-0.2 -0.2,-0.4 -0.3,-0.5 1.1,0.2 1.9,1.1 1.9,2.2 v 0.2 c -0.1,1.2 -1.1,2.1 -2.3,2.1 h -0.2 c -1.2,-0.1 -2.1,-1.1 -2.1,-2.3 v -0.2 0 C 69,77.2 69,77 69.1,76.8 Z"
         id="path1" /><polygon
         points=""
         id="polygon1" /><polygon
         points=""
         id="polygon2" /><polygon
         points=""
         id="polygon3" /><polygon
         points=""
         id="polygon4" /><path
         d="m 61.9,48.8 c 0.2,0.2 0.5,0.3 0.8,0.3 0.1,0 0.3,0 0.4,-0.1 0.4,-0.1 0.7,-0.5 0.8,-0.9 0,-0.1 0.1,-0.3 0.1,-0.4 0,-0.4 -0.1,-0.7 -0.3,-1 v 0 c -0.1,-0.1 -0.1,-0.3 -0.2,-0.4 0,-0.1 -0.1,-0.2 -0.1,-0.3 0,-0.1 0,-0.3 0.1,-0.4 v 0 c 0.1,-0.2 0.3,-0.3 0.5,-0.3 v 0 c 0.2,0 0.3,0.1 0.4,0.3 0,0.2 0.2,0.3 0.4,0.3 0.2,0 0.3,-0.2 0.3,-0.4 C 65,45 64.6,44.6 64,44.6 v 0 c -0.5,0 -0.9,0.3 -1.1,0.7 -0.1,0.2 -0.2,0.5 -0.2,0.7 0,0.2 0,0.4 0.1,0.5 v 0 c 0.1,0.2 0.1,0.3 0.2,0.5 v 0 c 0.1,0.2 0.2,0.5 0.2,0.7 v 0.2 c -0.1,0.2 -0.2,0.3 -0.4,0.4 h -0.2 c -0.1,0 -0.2,0 -0.3,-0.1 -0.2,-0.1 -0.4,-0.1 -0.5,0.1 -0.1,0.1 -0.1,0.4 0.1,0.5 z"
         id="path4" /><polygon
         points=""
         id="polygon5" /><path
         d="m 15.6,48.3 v 0 c -0.1,0 -0.2,0.1 -0.4,0.1 -0.2,0 -0.4,-0.1 -0.6,-0.2 L 14.5,48 v 0 c 0,-0.1 -0.1,-0.2 -0.1,-0.2 0,-0.2 0.1,-0.4 0.2,-0.5 C 14.8,47 15,46.6 15,46.1 V 46 46 c -0.1,-0.5 -0.4,-1 -0.9,-1.1 -0.1,0 -0.2,0 -0.3,0 -0.4,0 -0.8,0.2 -1,0.4 -0.1,0.1 -0.1,0.4 0,0.5 0.1,0.1 0.4,0.1 0.5,0 0.1,-0.1 0.3,-0.2 0.5,-0.2 h 0.1 c 0.2,0 0.3,0.2 0.4,0.4 v 0 c -0.1,0.3 -0.2,0.6 -0.3,0.8 -0.1,0.3 -0.2,0.6 -0.2,0.9 0,0.2 0.1,0.4 0.2,0.6 0.1,0.1 0.2,0.2 0.3,0.3 0.3,0.2 0.7,0.4 1,0.4 0.2,0 0.5,0 0.7,-0.1 0.2,-0.1 0.3,-0.3 0.2,-0.5 -0.2,-0.1 -0.4,-0.2 -0.6,-0.1 z"
         id="path5" /><polygon
         points=""
         id="polygon6" /><path
         d="m 37.1,48.1 v 0 c 0.5,-0.7 1.3,-1.1 2.2,-1.1 0.8,0 1.5,0.4 2,1.1 0.1,0.2 0.4,0.2 0.5,0.1 0.2,-0.1 0.2,-0.4 0.1,-0.5 -0.6,-0.8 -1.6,-1.3 -2.6,-1.4 -1.1,0 -2.1,0.6 -2.7,1.4 -0.1,0.2 -0.1,0.4 0,0.5 0.2,0.1 0.4,0.1 0.5,-0.1 z"
         id="path6" /><path
         d="m 32.4,54.6 c 0,0.4 0.3,0.8 0.8,0.8 h 1.1 c 0,0.2 0,0.5 0.1,0.7 V 58 c 0,2.7 2.2,4.8 4.8,4.8 2.6,0 4.8,-2.2 4.8,-4.8 0,0 0,0 0,0 v -1.2 c 0.2,-0.4 0.3,-0.9 0.4,-1.4 h 1 c 0.4,0 0.8,-0.3 0.8,-0.8 0,-0.5 -0.3,-0.8 -0.8,-0.8 H 43.9 C 43.5,52.2 42,51.1 40.4,51.1 H 38 c -1.6,0 -3.1,1.1 -3.5,2.7 h -1.4 c -0.4,0.1 -0.7,0.4 -0.7,0.8 z m 7.5,6.8 h -1.4 c -0.4,0 -0.8,-0.4 -0.8,-0.8 0,-0.4 0.4,-0.8 0.8,-0.8 h 1.4 c 0.4,0 0.8,0.4 0.8,0.8 0,0.4 -0.4,0.8 -0.8,0.8 z m 2.5,-3.7 c -1.8,1.4 -4.4,1.4 -6.2,0 -0.7,-0.6 -1.1,-1.4 -1.2,-2.3 h 8.6 c 0,0.9 -0.5,1.8 -1.2,2.3 z"
         id="path7" /><path
         d="m 45.8,42.9 c -0.3,0.3 -0.6,0.7 -0.8,1.1 -0.2,0.4 -0.1,0.8 0.3,1 0.4,0.2 0.8,0.1 1,-0.3 v 0 c 0.3,-0.5 0.6,-0.9 1,-1.3 0.9,-0.9 2.2,-1.4 3.5,-1.4 0.9,0 1.7,0.2 2.5,0.6 0.7,0.3 1.3,0.9 1.7,1.5 0.1,0.2 0.2,0.4 0.3,0.6 0.1,0.4 0.6,0.6 1,0.4 0.4,-0.2 0.6,-0.6 0.4,-1 v 0 C 56.6,43.8 56.4,43.5 56.3,43.2 56.2,43.1 56.2,43 56.1,43 c 0.3,-0.2 0.6,-0.5 0.9,-0.8 0.1,-0.2 0.1,-0.4 0,-0.5 -0.2,-0.1 -0.4,-0.1 -0.5,0 v 0 c -0.2,0.3 -0.5,0.5 -0.8,0.7 -0.4,-0.4 -0.8,-0.7 -1.2,-1 0.3,-0.3 0.5,-0.7 0.6,-1.1 0.1,-0.2 0,-0.4 -0.2,-0.5 -0.2,-0.1 -0.4,0 -0.5,0.2 v 0 c -0.1,0.4 -0.3,0.7 -0.6,1 0,0 0,0 0,0 -0.6,-0.3 -1.2,-0.4 -1.8,-0.5 0.1,-0.4 0.2,-0.8 0.2,-1.2 0,-0.2 -0.1,-0.4 -0.3,-0.4 -0.2,0 -0.4,0.1 -0.4,0.3 v 0 c -0.1,0.4 -0.2,0.9 -0.2,1.3 -0.1,0 -0.3,0 -0.4,0 -0.4,0 -0.8,0 -1.2,0.1 -0.1,0 -0.2,0.1 -0.3,0.1 -0.2,-0.5 -0.3,-0.9 -0.5,-1.4 -0.1,-0.2 -0.3,-0.3 -0.5,-0.2 -0.2,0.1 -0.3,0.3 -0.2,0.5 0,0 0,0 0,0 0.2,0.4 0.3,0.9 0.5,1.3 -0.8,0.3 -1.6,0.8 -2.2,1.4 -0.3,-0.4 -0.6,-0.7 -0.9,-1 -0.2,-0.1 -0.4,-0.1 -0.5,0 -0.1,0.2 -0.1,0.4 0,0.5 0,0 0,0 0,0 0.2,0.4 0.5,0.8 0.7,1.1 z"
         id="path8" /><path
         d="m 47,36.6 c 1.2,-0.6 2.6,-0.9 4,-0.9 0.1,0 0.3,0 0.4,0 1.5,0.1 2.8,0.7 3.8,1.7 0.3,0.3 0.7,0.3 1.1,0.1 0.3,-0.3 0.3,-0.7 0.1,-1.1 v 0 c -1.3,-1.4 -3,-2.2 -4.9,-2.2 -0.2,0 -0.4,0 -0.5,0 -1.6,0 -3.1,0.4 -4.6,1 -0.4,0.2 -0.6,0.6 -0.4,1 0.2,0.4 0.6,0.6 1,0.4 z"
         id="path9" /><path
         d="m 20.6,42.4 c 0.3,0.3 0.6,0.5 0.9,0.8 -0.1,0.1 -0.1,0.2 -0.2,0.2 -0.2,0.3 -0.3,0.6 -0.4,0.9 -0.1,0.4 0,0.8 0.4,1 0.4,0.1 0.8,0 1,-0.4 0,0 0,0 0,0 v 0 c 0.1,-0.2 0.2,-0.4 0.3,-0.6 0.4,-0.7 1,-1.2 1.7,-1.5 0.8,-0.4 1.6,-0.6 2.5,-0.6 1.3,0 2.6,0.5 3.5,1.4 0.4,0.4 0.7,0.8 1,1.3 0.2,0.4 0.7,0.5 1,0.3 0.4,-0.2 0.5,-0.7 0.3,-1 -0.2,-0.4 -0.5,-0.7 -0.8,-1.1 0.2,-0.4 0.5,-0.7 0.9,-1 0.2,-0.1 0.2,-0.4 0,-0.5 -0.1,-0.1 -0.4,-0.2 -0.5,0 -0.3,0.3 -0.6,0.6 -0.9,1 -0.6,-0.6 -1.4,-1.1 -2.2,-1.4 0.2,-0.4 0.3,-0.9 0.5,-1.3 0.1,-0.2 0,-0.4 -0.2,-0.5 -0.2,-0.1 -0.4,0 -0.5,0.2 -0.2,0.5 -0.3,0.9 -0.5,1.4 -0.1,0 -0.2,-0.1 -0.3,-0.1 -0.4,-0.1 -0.8,-0.1 -1.2,-0.1 -0.1,0 -0.3,0 -0.4,0 -0.1,-0.4 -0.2,-0.9 -0.2,-1.3 0,-0.2 -0.2,-0.3 -0.4,-0.3 -0.2,0 -0.3,0.2 -0.3,0.4 0,0 0,0 0,0 v 0 c 0.1,0.4 0.2,0.8 0.2,1.2 -0.6,0.1 -1.2,0.3 -1.8,0.5 0,0 0,0 0,0 C 23.8,41 23.6,40.7 23.4,40.3 23.3,40 23,39.9 22.8,40 c -0.2,0.1 -0.3,0.3 -0.2,0.5 0,0 0,0 0,0 v 0 c 0.2,0.4 0.4,0.8 0.6,1.1 -0.5,0.3 -0.9,0.6 -1.2,1 -0.3,-0.2 -0.6,-0.4 -0.8,-0.7 -0.1,-0.2 -0.4,-0.2 -0.5,0 -0.2,0.1 -0.2,0.3 -0.1,0.5 z"
         id="path10" /></g></g><path
     style="fill:#ffd5d5;stroke-width:0.145783"
     d="m 37.365795,77.797243 c -2.470918,-0.386057 -5.053551,-1.466098 -6.30333,-2.63601 -1.964934,-1.839367 -0.966189,-3.599344 2.779706,-4.898367 l 0.722247,-0.250467 0.07496,-1.701632 0.07496,-1.701633 0.740265,0.118526 c 0.611611,0.09793 0.759101,0.07728 0.848629,-0.118772 0.05959,-0.130511 0.04803,-0.300047 -0.02569,-0.376744 -0.158006,-0.164366 -1.357358,-0.531671 -2.700261,-0.826963 -2.413246,-0.530648 -6.722028,-3.363173 -9.081383,-5.969961 -2.096886,-2.31679 -3.893352,-5.383811 -4.798556,-8.192339 -0.217595,-0.675121 -0.437616,-1.341468 -0.488937,-1.480769 -0.106133,-0.288094 -0.668519,-0.359709 -1.142906,-0.145536 -0.234221,0.10574 -0.413181,0.09218 -0.699037,-0.05302 -0.21132,-0.107332 -0.916485,-0.231262 -1.567031,-0.275402 l -1.182811,-0.08025 -0.597998,-0.687191 c -1.266232,-1.455093 -1.135185,-3.125804 0.348922,-4.448378 0.910703,-0.811579 1.695536,-1.039661 2.951714,-0.857801 l 0.809404,0.117185 1.467673,-1.310585 c 0.807222,-0.720821 1.954746,-1.945973 2.550053,-2.722563 0.59531,-0.77659 1.122421,-1.343958 1.171359,-1.260822 0.169206,0.287457 0.643408,0.17506 1.312774,-0.311151 0.369612,-0.268477 1.049147,-0.636698 1.510079,-0.818269 0.741009,-0.291899 1.019698,-0.320829 2.406677,-0.249834 1.306193,0.06694 1.760059,0.153543 2.712893,0.518126 1.364649,0.522154 1.603008,0.546102 1.966601,0.197582 0.443575,-0.425178 0.235325,-0.958959 -0.513051,-1.315048 -2.308715,-1.09852 -5.493076,-1.306892 -7.410623,-0.484922 -0.353192,0.151401 -0.668026,0.248374 -0.699628,0.215498 -0.0316,-0.03289 0.227698,-0.617245 0.576226,-1.2986 1.138088,-2.224906 2.394166,-5.832164 2.859041,-8.210721 0.07196,-0.368216 0.197868,-0.666344 0.279783,-0.662508 0.08192,0.0039 0.581808,0.336171 1.110869,0.738527 3.395053,2.581965 8.145882,5.115012 12.382231,6.601956 1.659832,0.582593 4.874141,1.449855 6.658687,1.796595 3.302622,0.641703 10.066403,0.784827 12.229871,0.258788 0.304639,-0.07406 0.574926,0.505061 1.216959,2.607534 0.555296,1.818431 0.848782,3.573401 0.932461,5.575852 0.04994,1.195505 0.139469,1.810075 0.285816,1.962314 0.125172,0.130214 0.64739,0.280028 1.265826,0.363142 1.280613,0.172111 2.048081,0.671688 2.679722,1.744356 0.366437,0.622295 0.41495,0.845969 0.373014,1.71985 -0.05509,1.147707 -0.295115,1.629974 -1.183336,2.377456 -0.468946,0.394641 -0.650572,0.465767 -0.951994,0.372796 -0.959431,-0.295925 -2.210043,-0.334754 -2.879312,-0.0894 -0.897766,0.329124 -1.61088,1.255289 -1.802019,2.340389 -0.100804,0.572265 -0.369401,1.153955 -0.942871,2.041916 -2.346564,3.633439 -5.055131,6.181122 -8.670031,8.155046 -2.229013,1.217158 -2.890413,1.407704 -7.587551,2.185939 -0.257175,0.0426 -0.340411,0.14124 -0.315952,0.3744 0.03598,0.343048 0.449616,0.422706 1.420105,0.273493 l 0.489938,-0.07533 -0.05659,1.522795 c -0.03104,0.837537 -0.01081,1.649458 0.04504,1.804272 0.05647,0.156397 0.584303,0.528732 1.187836,0.837879 0.690784,0.353841 1.073216,0.63346 1.050483,0.768075 -0.01965,0.116422 -0.133003,0.608467 -0.25187,1.093431 -0.250137,1.020518 -0.187409,1.893104 0.192991,2.684657 0.147713,0.307366 0.266699,0.601302 0.264412,0.653192 -0.0098,0.223747 -2.222308,1.048333 -3.524914,1.313748 -1.182235,0.240885 -4.419231,0.473802 -5.233866,0.376595 -0.122882,-0.01463 -0.725304,-0.105068 -1.338716,-0.200914 z m 4.233971,-16.143725 c 1.716666,-0.694978 2.632792,-2.005782 2.950527,-4.221651 0.28497,-1.98735 0.304225,-2.02455 1.030474,-1.990555 0.959739,0.04492 1.426685,-0.504272 1.054363,-1.240089 -0.117963,-0.233133 -0.306248,-0.28945 -1.090436,-0.326156 -0.925197,-0.04331 -0.952103,-0.05549 -1.125663,-0.507223 -0.253849,-0.660795 -0.922016,-1.404285 -1.616346,-1.798549 -0.536628,-0.304716 -0.820922,-0.35007 -2.764743,-0.441057 -2.076287,-0.09719 -2.195336,-0.08701 -2.85561,0.243939 -0.862763,0.432451 -1.305349,0.839899 -1.63326,1.503583 -0.250503,0.507008 -0.275503,0.518534 -1.046562,0.482442 -0.908046,-0.0425 -1.15574,0.109698 -1.18293,0.726908 -0.02657,0.603177 0.205023,0.791875 1.018631,0.829958 l 0.694413,0.03251 0.01476,1.743037 c 0.01357,1.601411 0.05145,1.81944 0.466137,2.683323 0.511845,1.066272 1.46584,1.934637 2.561168,2.331277 0.957114,0.346587 2.60082,0.322486 3.525068,-0.05169 z M 17.917031,48.037323 c 0.07826,-0.06783 0.103298,-0.233751 0.05563,-0.368691 -0.06851,-0.193955 -0.212645,-0.235248 -0.688112,-0.197138 -0.41831,0.03353 -0.665928,-0.01887 -0.813207,-0.172077 -0.269459,-0.28031 -0.269702,-0.278583 0.141986,-1.004431 0.302466,-0.53327 0.327177,-0.680894 0.196051,-1.171269 -0.08251,-0.308603 -0.274866,-0.631986 -0.427436,-0.718633 -0.675819,-0.383806 -1.797878,-0.07813 -1.82319,0.496459 -0.01092,0.248891 0.07318,0.281811 0.699163,0.273567 0.800005,-0.01058 0.797505,-0.01699 0.421646,1.087558 -0.196703,0.578046 -0.199918,0.728517 -0.02278,1.065677 0.392037,0.74618 1.732331,1.166595 2.260243,0.708978 z m 45.580723,2.322772 c 0.337534,-0.105546 0.71435,-0.768608 0.737675,-1.298049 0.01059,-0.241183 -0.0986,-0.683713 -0.242719,-0.983395 -0.18643,-0.38766 -0.217548,-0.613193 -0.107855,-0.781659 0.190113,-0.291973 0.570335,-0.291478 0.673602,8.81e-4 0.04214,0.119316 0.237534,0.224466 0.434196,0.233671 0.281792,0.01319 0.36088,-0.05847 0.3732,-0.338111 0.03619,-0.821531 -1.03613,-1.246395 -1.814196,-0.718802 -0.550855,0.373527 -0.694104,1.063482 -0.404034,1.946028 0.307227,0.934751 0.182779,1.191638 -0.534755,1.103828 -0.449301,-0.05499 -0.568859,-0.01604 -0.626287,0.203782 -0.128155,0.490646 0.766464,0.864695 1.511172,0.631833 z M 38.535592,48.079073 c 1.048481,-0.819741 2.391612,-0.7544 3.291842,0.16012 0.342564,0.348012 0.625254,0.519931 0.776939,0.472501 0.360285,-0.112655 0.309608,-0.621219 -0.101422,-1.017685 -1.038361,-1.001583 -2.579059,-1.257819 -3.827402,-0.636541 -0.796048,0.396179 -1.27362,0.912897 -1.154756,1.249409 0.117885,0.333727 0.36851,0.27746 1.014795,-0.227829 z M 23.778416,44.926771 c 0.136098,-0.130528 0.445112,-0.517488 0.686699,-0.85991 0.645769,-0.915309 2.002991,-1.497257 3.519019,-1.508881 0.619933,-0.0048 1.394087,0.07334 1.720346,0.17351 0.916806,0.281519 1.911656,1.02109 2.47483,1.839781 0.657756,0.956193 0.96269,1.136072 1.456704,0.859304 0.499312,-0.279741 0.518846,-0.897615 0.04683,-1.481616 -0.296488,-0.366835 -0.331113,-0.500064 -0.189108,-0.727668 0.0956,-0.15324 0.313917,-0.341861 0.485134,-0.419162 0.401462,-0.181247 0.363105,-0.742824 -0.056,-0.819917 -0.19535,-0.03594 -0.426918,0.09115 -0.65671,0.3604 -0.409352,0.479646 -0.650691,0.509324 -0.988035,0.121508 -0.132043,-0.151801 -0.502008,-0.402855 -0.822142,-0.5579 -0.643748,-0.311769 -0.679027,-0.442526 -0.317061,-1.175141 0.186185,-0.37683 0.207921,-0.551383 0.08749,-0.702498 -0.298393,-0.374382 -0.587233,-0.223694 -0.937697,0.489203 l -0.349198,0.710321 -0.792194,-0.09983 c -0.435709,-0.05491 -0.826326,-0.135328 -0.868038,-0.178727 -0.04171,-0.04339 -0.113615,-0.36152 -0.159781,-0.706952 -0.06498,-0.48622 -0.154338,-0.641084 -0.395648,-0.685727 -0.397187,-0.0735 -0.535104,0.228326 -0.381104,0.833986 0.06645,0.261316 0.119318,0.508923 0.117498,0.550237 -0.0018,0.04131 -0.386181,0.141111 -0.854135,0.221771 -0.925946,0.159599 -0.884902,0.179852 -1.307613,-0.645259 -0.225346,-0.439865 -0.743964,-0.5618 -0.903504,-0.212431 -0.05434,0.119003 0.01004,0.474695 0.143039,0.790422 0.133011,0.315728 0.2135,0.588073 0.17886,0.605212 -0.03463,0.01713 -0.277886,0.198959 -0.540547,0.404045 l -0.477567,0.372886 -0.374004,-0.389066 c -0.718537,-0.74747 -1.370201,-0.155469 -0.668051,0.606887 0.356362,0.386916 0.362546,0.42579 0.128807,0.809802 -0.294658,0.484104 -0.35096,1.201032 -0.113706,1.447842 0.25062,0.260714 0.821413,0.247079 1.106592,-0.02643 z m 33.265995,1.486009 c 0.385253,-0.263469 0.421079,-0.537603 0.164101,-1.255741 l -0.239807,-0.670157 0.378797,-0.308197 c 0.458094,-0.372713 0.537528,-0.962344 0.132198,-0.981316 -0.151626,-0.0071 -0.403012,0.10914 -0.55864,0.258316 -0.36362,0.348541 -0.456437,0.337334 -1.036941,-0.125217 l -0.481523,-0.38367 0.333154,-0.522268 c 0.370774,-0.581241 0.316411,-1.000783 -0.132402,-1.021791 -0.185434,-0.0086 -0.422175,0.182322 -0.641204,0.517322 l -0.34724,0.531084 -0.537409,-0.21067 c -0.295575,-0.11587 -0.657271,-0.219088 -0.803768,-0.229377 -0.232721,-0.01635 -0.249952,-0.107445 -0.136435,-0.721347 0.10674,-0.577232 0.0869,-0.720621 -0.111088,-0.803392 -0.371853,-0.15545 -0.67321,0.156324 -0.812378,0.840468 l -0.126618,0.622489 -0.873564,-0.04089 -0.873567,-0.04089 -0.154516,-0.577848 c -0.176327,-0.659414 -0.434065,-0.940799 -0.766518,-0.836844 -0.288219,0.09011 -0.311585,0.5129 -0.06367,1.152151 l 0.191793,0.494551 -0.796789,0.38087 c -0.438235,0.209482 -0.889564,0.477832 -1.002958,0.596339 -0.183518,0.191795 -0.257482,0.158864 -0.673311,-0.299781 -0.822699,-0.90741 -1.384688,-0.541134 -0.796422,0.519068 l 0.333792,0.601571 -0.378475,0.476083 c -0.645856,0.812426 -0.486616,1.545795 0.34409,1.584679 0.317024,0.01484 0.519724,-0.117208 0.885044,-0.576557 1.116292,-1.403612 2.407634,-2.005848 4.143812,-1.932522 1.912451,0.08087 3.403117,0.942431 4.085645,2.361668 0.35161,0.731134 0.843652,0.950021 1.352825,0.601809 z m 0.194051,-7.006021 c 0.821363,-0.711994 -0.667314,-2.27063 -2.839491,-2.972929 -1.296474,-0.419171 -3.927162,-0.414982 -5.567016,0.0089 -1.38809,0.358774 -1.821494,0.666958 -1.703165,1.211078 0.146847,0.675248 0.522787,0.731155 2.062934,0.306783 1.16023,-0.319687 1.630898,-0.375699 2.74527,-0.326693 1.601545,0.07041 2.576037,0.427572 3.683766,1.350065 0.773041,0.643773 1.226184,0.762216 1.617702,0.42283 z"
     id="path13" /><path
     style="fill:#502d16;stroke-width:0.154275"
     d=""
     id="path14" /><path
     style="fill:#502d16;stroke-width:0.145783"
     d="m 71.366027,84.331305 c 0.031,-0.7038 -1.163188,-2.900866 -2.232991,-4.10824 l -0.531166,-0.599474 1.007665,0.101497 c 1.101057,0.110904 1.880329,-0.113155 2.543135,-0.731218 1.029921,-0.960392 0.981286,-3.019635 -0.09595,-4.062484 -0.477223,-0.46199 -1.040234,-0.662652 -1.983066,-0.706784 -1.600765,-0.07493 -2.94476,0.924946 -3.002414,2.23367 -0.01571,0.356583 -0.02873,0.351492 -0.666834,-0.260724 -0.917693,-0.880461 -1.792927,-1.25829 -3.267665,-1.410606 -1.27062,-0.131248 -1.67225,-0.302904 -0.950063,-0.406085 0.690269,-0.09862 1.467064,-0.638313 1.860867,-1.29287 0.788442,-1.31051 0.311741,-3.174228 -0.993144,-3.882804 -0.681869,-0.370266 -1.996485,-0.477507 -2.735681,-0.223154 -1.211324,0.416794 -2.000284,1.765366 -1.779948,3.042476 0.07039,0.407913 0.114547,0.754847 0.09816,0.770965 -0.07245,0.07126 -2.290962,-0.990366 -2.286393,-1.094092 0.0028,-0.0637 0.341681,-0.690827 0.753052,-1.393617 1.298969,-2.219164 4.714038,-6.268921 6.253764,-7.416025 0.771386,-0.574687 1.49234,-0.920575 1.627278,-0.780712 0.172014,0.178293 0.06871,3.06228 -0.14272,3.98414 -0.13481,0.587801 -0.161806,0.999481 -0.0766,1.167889 0.07237,0.14305 0.503605,0.390616 0.958274,0.550148 1.996362,0.700474 5.164295,2.716467 6.405703,4.076429 0.614297,0.67296 0.996417,0.62193 2.344019,-0.313037 0.637106,-0.442024 1.776279,-1.064665 2.531492,-1.383648 l 1.373115,-0.579967 -5.97e-4,1.017689 c -0.0011,1.804723 -1.187661,4.955119 -3.184956,8.456096 -1.473578,2.582974 -3.85274,5.843966 -3.826334,5.244556 z"
     id="path15" /><path
     style="fill:#502d16;stroke-width:0.145783"
     d="m 60.727829,82.066086 c -0.180944,-0.03487 -0.490909,-0.263722 -0.688813,-0.508578 -0.674548,-0.8346 -0.287956,-2.488108 0.911792,-3.899836 0.800384,-0.941803 1.438529,-1.280416 2.312268,-1.226936 1.309385,0.08014 2.564287,1.072657 2.523613,1.99595 -0.07639,1.734061 -3.217878,3.99408 -5.05886,3.6394 z"
     id="path16" /><path
     style="fill:#502d16;stroke-width:0.145783"
     d="M 49.143317,76.035581 C 48.93234,75.9117 48.698913,75.530785 48.540796,75.05235 c -0.35101,-1.062085 -0.188623,-2.037395 0.55553,-3.336556 0.655955,-1.145186 1.327719,-1.669914 2.230476,-1.742275 0.834205,-0.06686 2.096405,0.598359 2.650352,1.396827 l 0.409115,0.589704 -0.838002,0.832574 c -0.4609,0.457915 -1.002619,1.112887 -1.203822,1.455495 -0.99266,1.690306 -2.209452,2.369744 -3.201128,1.787462 z"
     id="path17" /><path
     style="fill:#502d16;stroke-width:0.145783"
     d="M 12.803165,73.529257 C 11.88586,72.038788 10.986703,71.205982 9.7485707,70.700056 8.1706581,70.05529 6.6701248,70.227173 4.8746627,71.258354 c -1.169866,0.671887 -1.7146605,0.7169 -2.0567874,0.169947 -0.293886,-0.469831 -0.1394911,-1.388999 0.4024836,-2.396123 0.7444854,-1.383443 2.1707754,-2.249336 4.0515462,-2.45968 2.5287691,-0.28281 5.8925739,1.18042 7.9878679,3.474666 0.775736,0.849392 1.971342,2.562132 1.96049,2.808458 -0.0055,0.125619 -3.316649,2.013941 -3.505165,1.998989 -0.05564,-0.0046 -0.466025,-0.600824 -0.911933,-1.325354 z"
     id="path18" /><path
     style="fill:#ff0000;stroke-width:0.145783"
     d="m 38.536057,60.256285 c -0.278509,-0.320178 -0.289536,-0.626322 -0.03065,-0.850739 0.246049,-0.213286 2.104693,-0.126286 2.330975,0.109106 0.237786,0.247359 0.196903,0.62893 -0.09445,0.881484 -0.364038,0.315565 -1.894117,0.218559 -2.205881,-0.139846 z"
     id="path20" /><path
     style="fill:#ffdd55;stroke-width:0.145783"
     d="m 62.805317,55.401247 c -0.938044,-0.602611 -1.015085,-1.517849 -0.188108,-2.23471 0.702096,-0.608608 1.441769,-0.601231 2.039276,0.02034 0.226137,0.235246 0.446927,0.59218 0.49064,0.793189 0.116329,0.53491 -0.364891,1.299515 -0.968298,1.538523 -0.650748,0.257757 -0.81092,0.244074 -1.373508,-0.117347 z"
     id="path21" /><path
     style="fill:#ffdd55;stroke-width:0.145783"
     d="M 14.850458,53.234826 C 14.221193,52.58022 14.20798,51.798702 14.81558,51.17235 c 1.045662,-1.07792 2.920165,-0.267636 2.855761,1.234448 -0.0312,0.727823 -0.875665,1.40267 -1.706543,1.363778 -0.51448,-0.02408 -0.715291,-0.120624 -1.114346,-0.53575 z"
     id="path22" /><path
     style="fill:#ffdd55;stroke-width:0.145783"
     d="m 37.905705,85.672962 c -0.562621,-0.585277 -0.541468,-1.289732 0.05548,-1.847612 0.965786,-0.902581 2.446671,-0.307934 2.390814,0.960028 -0.05585,1.267874 -1.557111,1.812574 -2.446292,0.887584 z"
     id="path23" /><path
     style="fill:#ffdd55;stroke-width:0.145783"
     d="m 37.978865,92.141022 c -0.463042,-0.215753 -0.906638,-0.88211 -0.886813,-1.332153 0.01638,-0.371881 0.51064,-0.998196 0.905873,-1.147903 0.785226,-0.297434 1.674672,0.06151 1.953961,0.788529 0.436603,1.136537 -0.831265,2.223512 -1.973021,1.691527 z"
     id="path24" /><path
     style="fill:#ffffff;stroke-width:0.145783"
     d="m 60.616585,73.375984 c -0.885273,-0.500055 -1.337809,-1.729641 -0.9399,-2.553816 0.123349,-0.255487 0.141753,-0.245743 0.225633,0.119496 0.231441,1.007734 1.630857,1.369963 2.472856,0.640081 0.42435,-0.367846 0.46939,-0.479562 0.426487,-1.057847 l -0.04796,-0.646566 0.410617,0.409329 c 1.093176,1.089748 0.707572,2.728043 -0.754933,3.207437 -0.791767,0.259532 -1.168132,0.234738 -1.792792,-0.118096 z"
     id="path25" /><path
     style="fill:#ffffff;stroke-width:0.145783"
     d="m 68.988708,78.816365 c -0.617793,-0.305882 -1.088789,-0.882399 -1.201235,-1.47036 -0.139141,-0.727554 0.07542,-0.9544 0.505226,-0.534187 0.633126,0.61898 2.014159,0.382883 2.34171,-0.400332 0.09209,-0.220191 0.140722,-0.571884 0.108075,-0.78154 -0.06641,-0.426387 0.06599,-0.465366 0.476983,-0.140437 1.103508,0.872428 0.963636,2.571228 -0.268542,3.261551 -0.529464,0.296631 -1.434185,0.326741 -1.962216,0.06531 z"
     id="path26" /><path
     style="fill:#ffffff;stroke-width:0.145783"
     d="M 47.511639,83.707456 C 45.94703,83.256624 44.384374,82.488996 43.305641,81.641341 42.4645,80.980377 41.46551,79.9018 41.475906,79.665831 c 0.0019,-0.04253 0.32465,-0.104489 0.717282,-0.13767 2.039513,-0.172392 4.620209,-0.901645 5.937909,-1.677941 0.601387,-0.354296 0.785734,-0.390997 1.622139,-0.322938 0.788023,0.06412 1.071684,0.01793 1.720005,-0.280136 0.749003,-0.344346 1.337107,-0.824869 1.869821,-1.527786 l 0.253735,-0.334805 0.387353,0.612909 c 0.982985,1.555381 1.364584,3.972378 0.835758,5.293588 -0.918098,2.293762 -4.091955,3.343166 -7.308269,2.416404 z"
     id="path27" /><path
     style="fill:#ffffff;stroke-width:0.145783"
     d="m 26.264862,82.643673 c -1.859819,-0.673755 -3.065493,-2.031143 -3.247045,-3.655626 -0.220514,-1.973127 1.56028,-5.213488 3.641502,-6.626138 0.756882,-0.51374 2.256135,-1.160653 2.383299,-1.028368 0.04064,0.04228 -0.03804,0.303402 -0.174858,0.580295 -0.136805,0.276892 -0.266566,0.908125 -0.288356,1.402739 -0.0732,1.661636 0.970007,3.103918 3.101905,4.28854 1.088676,0.604938 3.157404,1.341278 4.26771,1.519048 0.414746,0.0664 0.752018,0.167586 0.749495,0.224856 -0.01124,0.255294 -2.392119,2.035274 -3.271849,2.446092 -1.817762,0.848855 -3.063774,1.128788 -4.894886,1.099695 -1.125301,-0.01788 -1.842306,-0.09728 -2.266917,-0.251133 z"
     id="path28" /><path
     style="fill:#ffffff;stroke-width:0.145783"
     d="m 37.511285,79.750791 c 0.245861,-0.324226 0.292616,-0.329629 1.621299,-0.187341 1.237596,0.132526 1.5787,0.257518 1.571524,0.575822 -0.0012,0.05862 -0.777206,0.07029 -1.724192,0.02596 l -1.721793,-0.08059 z"
     id="path29" /><path
     style="fill:#ffffff;stroke-width:0.145783"
     d="m 38.780364,57.959796 c -1.45077,-0.416463 -2.592591,-1.451337 -2.76673,-2.507584 l -0.07621,-0.462288 4.053057,0.189717 c 4.51812,0.211485 4.31845,0.14931 3.717535,1.157413 -0.825908,1.38554 -3.121031,2.141355 -4.927652,1.622742 z"
     id="path30" /><metadata
     id="metadata30"><rdf:RDF><cc:Work
         rdf:about=""><dc:title>bwcatwoman4</dc:title></cc:Work></rdf:RDF></metadata><path
     style="fill:#ff0000;stroke-width:0.168585"
     d="m 38.338556,61.570249 c -1.078255,-0.374593 -1.982913,-1.07683 -2.486149,-1.92986 -0.524843,-0.889653 -0.674351,-1.628846 -0.612666,-3.029105 0.06664,-1.512773 -0.0067,-1.712043 -0.640968,-1.741733 -0.516441,-0.02417 -1.226194,-0.462924 -1.213539,-0.75018 0.0177,-0.401673 0.58944,-0.67091 1.349203,-0.635347 0.557948,0.02611 0.808198,-0.03266 0.815196,-0.191503 0.01991,-0.451861 1.223711,-1.601092 1.942909,-1.85483 0.57374,-0.202418 1.163315,-0.222579 2.853761,-0.09759 2.069211,0.152997 2.150348,0.17369 2.815005,0.71789 0.376411,0.308194 0.817709,0.854071 0.980661,1.213062 0.284137,0.62597 0.335736,0.656636 1.259527,0.748533 0.700135,0.06965 1.008137,0.180199 1.127578,0.404722 0.233194,0.438357 -0.212142,0.822433 -1.045562,0.901739 -0.617858,0.05879 -0.678302,0.112735 -0.865752,0.772559 -0.110838,0.390143 -0.255503,1.147019 -0.321481,1.681947 -0.357513,2.898564 -3.241771,4.733234 -5.957723,3.789693 z m 2.588908,-1.045733 c 0.263771,-0.256026 0.290657,-0.866323 0.05048,-1.145937 -0.107579,-0.125243 -0.644234,-0.238937 -1.264978,-0.267992 -1.141934,-0.05346 -1.477865,0.105626 -1.5046,0.712503 -0.02674,0.606874 0.293827,0.796685 1.43576,0.850137 0.620744,0.02906 1.16519,-0.03404 1.283338,-0.148711 z m 1.459948,-2.776135 c 0.973504,-0.499848 1.701013,-1.350667 1.730676,-2.024015 l 0.018,-0.408391 -4.165512,-0.19498 c -4.624162,-0.216448 -4.435475,-0.262607 -3.950968,0.966591 0.275819,0.699757 0.862275,1.23271 1.922132,1.746772 1.177803,0.57127 3.243435,0.531322 4.445682,-0.08597 z"
     id="path2" /><path
     style="fill:#ffffff;stroke-width:0.168585"
     d="m 38.677822,60.134219 c -0.556947,-0.525339 -0.237275,-0.735223 1.029487,-0.675928 1.018165,0.04765 1.132302,0.08787 1.118807,0.394217 -0.03107,0.70526 -1.495651,0.897314 -2.148294,0.281711 z"
     id="path3" /><path
     style="fill:#ffb380"
     d="M 12.913556,73.550651 C 11.954534,72.080107 11.206631,71.345108 10.114612,70.800002 8.496007,69.992038 6.7096412,70.132748 4.7700537,71.220988 3.7166142,71.812039 3.106526,71.807392 2.8575957,71.206418 2.7024612,70.83189 2.7142544,70.616994 2.9247157,69.983356 c 0.6385537,-1.922505 2.138118,-3.053011 4.4232367,-3.334631 2.3607304,-0.290939 6.1987106,1.49522 8.1176016,3.777852 0.752447,0.895079 1.594881,2.197417 1.537558,2.376945 -0.05039,0.157823 -3.002513,1.942758 -3.213144,1.942758 -0.05317,0 -0.447557,-0.538035 -0.876412,-1.195632 z"
     id="path11" /><path
     style="fill:#c87137;stroke-width:0.154275"
     d="m 49.182751,75.902867 c -0.413228,-0.289435 -0.688947,-1.09973 -0.688947,-2.024705 0,-0.929168 0.752851,-2.464959 1.570402,-3.203567 0.517249,-0.467303 0.72855,-0.556565 1.317506,-0.556565 0.779801,0 1.468132,0.292848 2.126453,0.904694 0.841798,0.782369 0.834286,0.875768 -0.155315,1.931157 -0.494625,0.527508 -1.142302,1.300407 -1.439281,1.717553 -0.928776,1.304587 -1.961502,1.770284 -2.730818,1.231433 z"
     id="path12" /><path
     style="fill:#c87137;stroke-width:0.154275"
     d="m 60.181,81.52255 c -0.272147,-0.323429 -0.398921,-0.655218 -0.397894,-1.041357 0.0035,-1.305318 1.623087,-3.573312 2.77286,-3.882913 1.291984,-0.347896 3.088086,0.732598 3.088086,1.857721 0,1.407603 -2.658186,3.535564 -4.421695,3.539704 -0.528421,0.0012 -0.712591,-0.08244 -1.041357,-0.473155 z"
     id="path19" /><path
     style="fill:#ffb380;stroke-width:0.154275"
     d="m 71.352231,83.9218 c 0,-0.53664 -1.118863,-2.466127 -2.327701,-4.014139 -0.0854,-0.109357 0.181544,-0.143354 0.830963,-0.105828 0.770183,0.0445 1.091924,-0.01434 1.649768,-0.301713 1.008437,-0.5195 1.389721,-1.175639 1.389721,-2.391534 0,-1.223566 -0.381011,-2.036117 -1.190836,-2.539601 -0.792875,-0.492945 -2.454902,-0.513073 -3.36028,-0.04069 -0.697265,0.363796 -1.311338,1.163709 -1.311338,1.708196 0,0.343717 -0.04877,0.324926 -0.849621,-0.327377 -0.882564,-0.718859 -1.760708,-1.050501 -3.315807,-1.252255 -0.8165,-0.10593 -0.831051,-0.115793 -0.385687,-0.261426 0.678325,-0.221811 1.429676,-0.829449 1.722104,-1.392715 0.307294,-0.591899 0.340004,-2.032867 0.05849,-2.5768 -0.280673,-0.542314 -0.786368,-1.072885 -1.255078,-1.316816 -0.604857,-0.314786 -1.843172,-0.431277 -2.552925,-0.240161 -1.21901,0.328246 -2.177377,1.785096 -2.004415,3.046989 0.05329,0.388812 0.02976,0.670506 -0.056,0.670506 -0.299562,0 -1.851767,-0.841122 -1.851767,-1.003452 0,-0.09229 0.308356,-0.667938 0.685236,-1.279219 2.183906,-3.54219 6.402962,-8.05376 7.531583,-8.05376 0.301204,0 0.310669,0.06184 0.218425,1.427045 -0.05303,0.784874 -0.141461,1.947723 -0.196508,2.584108 l -0.100086,1.157063 1.627942,0.747811 c 1.996323,0.917031 4.078575,2.246582 5.352213,3.417475 0.855683,0.786655 1.009914,0.870405 1.443326,0.783757 0.266896,-0.05336 0.840534,-0.332876 1.274751,-0.62115 0.848897,-0.56358 2.98631,-1.668501 3.592408,-1.857071 l 0.37074,-0.115345 -0.09006,1.136388 c -0.119332,1.505663 -0.671267,3.143162 -1.943027,5.76464 -1.164606,2.400596 -2.347012,4.380757 -3.728203,6.243567 -0.896489,1.209097 -1.228327,1.480199 -1.228327,1.003512 z"
     id="path31" /><path
     style="fill:#ffb380;stroke-width:0.154275"
     d="m 60.903167,81.875885 c -0.51883,-0.08083 -0.967293,-0.751869 -0.967293,-1.447358 0,-0.728877 0.578084,-1.919078 1.343719,-2.766544 0.963827,-1.066842 1.692575,-1.282428 2.788095,-0.824803 0.914654,0.382074 1.422089,0.959207 1.422089,1.617421 0,1.52603 -2.894276,3.684954 -4.58661,3.421284 z"
     id="path32" /><path
     style="fill:#ff9955;stroke-width:0.154275"
     d="m 49.064403,75.633364 c -0.368931,-0.524878 -0.582295,-1.487047 -0.467296,-2.107278 0.135657,-0.731646 0.920104,-2.19162 1.450692,-2.699956 0.904145,-0.866226 2.16915,-0.773257 3.325249,0.244381 0.436454,0.384182 0.684555,0.717516 0.633356,0.850938 -0.115817,0.301814 -2.024152,2.596221 -2.828351,3.40055 -0.551411,0.5515 -0.756777,0.658484 -1.264021,0.658484 -0.452933,0 -0.667164,-0.08752 -0.849629,-0.347119 z"
     id="path33" /></svg>
