<?xml version="1.0" encoding="iso-8859-1"?>
<!-- Uploaded to: SVG Repo, www.svgrepo.com, Generator: SVG Repo Mixer Tools -->
<!DOCTYPE svg PUBLIC "-//W3C//DTD SVG 1.1//EN" "http://www.w3.org/Graphics/SVG/1.1/DTD/svg11.dtd">
<svg fill="#000000" version="1.1" id="Capa_1" xmlns="http://www.w3.org/2000/svg" xmlns:xlink="http://www.w3.org/1999/xlink" 
	 width="800px" height="800px" viewBox="0 0 235.504 235.504"
	 xml:space="preserve">
<g>
	<path d="M231.921,61.653c-15.456-9.648-83.395,15.671-91.95,18.935c-1.226-3.174-3.033-6.029-5.289-8.381
		c2.528-3.106,3.938-6.809,4.231-11.275h2.821c1.19,0,2.168-0.98,2.168-2.192c0-1.201-0.978-2.174-2.168-2.174h-2.93
		c-1.242-10.567-10.15-18.809-21.043-18.809c-10.898,0-19.791,8.249-21.047,18.809h-2.938c-1.2,0-2.174,0.974-2.174,2.174
		c0,1.212,0.974,2.192,2.174,2.192h2.845c0.359,4.067,1.852,7.913,4.362,11.133c-2.308,2.406-4.168,5.29-5.424,8.523
		c-8.525-3.25-76.5-28.553-91.966-18.935C1.467,62.987,0.225,64.949,0,67.758c0.038,0.3,3.398,29.348,32.861,29.348
		c0.329,0,0.667-0.008,1.02-0.016c0.944,3.043,3.633,8.997,10.74,12.976c4.663,2.621,10.315,3.926,16.939,3.926
		c10.029,0,22.297-3.04,36.638-8.997c1.03,1.529,2.192,2.981,3.526,4.262c-5.055,4.815-8,11.724-8,18.961
		c0,7.405,1.372,15.364,3.416,23.106c-0.016,0.092-0.096,0.156-0.096,0.232c0,0.457,0.239,0.825,0.487,1.178
		c1.79,6.456,3.989,12.729,6.268,18.463c-0.024,0.136-0.158,0.212-0.158,0.385c0,0.733,0.431,1.286,0.99,1.683
		c5.352,13.021,10.764,22.586,11.208,23.367c0.373,0.646,1.03,1.066,1.76,1.114c0.052,0,0.112,0,0.156,0
		c0.673,0,1.318-0.309,1.731-0.838c0.913-1.178,22.309-29.566,22.309-68.675c0-7.237-2.957-14.14-8.002-18.961
		c1.334-1.28,2.5-2.723,3.526-4.264c14.351,5.977,26.617,8.997,36.647,8.997c6.62,0,12.279-1.302,16.956-3.925
		c7.085-3.985,9.782-9.938,10.731-12.968c30.408,0.653,33.826-29.032,33.851-29.767C235.296,64.949,234.054,62.987,231.921,61.653z
		 M101.011,60.939h33.546c-0.272,3.358-1.302,6.092-3.134,8.4c-3.879-2.868-8.592-4.579-13.661-4.579
		c-4.991,0-9.632,1.641-13.477,4.42C102.472,66.778,101.348,63.945,101.011,60.939z M46.859,106.336
		c-7.86-4.354-9.091-11.521-9.137-11.814c-0.165-1.13-1.234-1.932-2.284-1.843C7.558,94.476,4.48,68.419,4.364,67.752
		c0.1-1.036,0.573-1.771,1.553-2.384c11.604-7.184,67.68,11.553,88.326,19.396c0.038,0.006,0.072-0.016,0.118,0
		c-0.376,1.797-0.605,3.633-0.605,5.55c0,3.783,0.839,7.474,2.348,10.833C68.449,112.545,54.041,110.307,46.859,106.336z
		 M135.218,149.394h-34.011c-1.415-5.458-2.45-10.977-2.867-16.266h38.842C136.89,138.798,136.26,144.272,135.218,149.394z
		 M129.24,169.419h-21.402c-1.948-4.89-3.829-10.211-5.424-15.653h31.747C132.766,159.452,131.08,164.718,129.24,169.419z
		 M117.983,191.424c-1.852-3.543-5.065-9.891-8.34-17.633H127.4C123.826,181.914,120.163,188.109,117.983,191.424z M129.116,111.017
		c5.214,3.987,8.312,10.425,8.312,17.218c0,0.177-0.017,0.353-0.017,0.529H98.128c0-0.177-0.022-0.369-0.022-0.529
		c0-6.809,3.108-13.254,8.313-17.218c0.533-0.425,0.848-1.062,0.848-1.743c0-0.684-0.314-1.327-0.848-1.741
		c-5.198-3.99-8.313-10.412-8.313-17.218c0-11.679,8.824-21.171,19.648-21.171c10.848,0,19.664,9.492,19.664,21.171
		c0,6.799-3.105,13.235-8.319,17.218c-0.528,0.415-0.85,1.058-0.85,1.741C128.25,109.955,128.579,110.592,129.116,111.017z
		 M200.107,92.679c-1.118,0-2.116,0.735-2.284,1.843c0,0.07-1.183,7.355-9.032,11.753c-7.174,4.04-21.604,6.324-49.355-5.129
		c1.519-3.358,2.376-7.042,2.376-10.833c0-1.917-0.236-3.761-0.613-5.55c0.04-0.016,0.068,0.006,0.101,0
		c20.638-7.842,76.734-26.571,88.331-19.396c0.982,0.613,1.467,1.348,1.551,1.945C231.064,68.426,228.167,94.476,200.107,92.679z"/>
</g>
</svg>