<?xml version="1.0" encoding="iso-8859-1"?>
<!-- Uploaded to: SVG Repo, www.svgrepo.com, Generator: SVG Repo Mixer Tools -->
<svg fill="#000000" height="800px" width="800px" version="1.1" id="Layer_1" xmlns="http://www.w3.org/2000/svg" xmlns:xlink="http://www.w3.org/1999/xlink" 
	 viewBox="0 0 512 512" xml:space="preserve">
<g>
	<g>
		<path d="M386.534,268.784c62.406-25.653,121.712-82.675,121.712-109.982c0-7.801-4.366-13.915-11.685-16.352
			c-6.523-2.17-33.065-3.44-117.592,57.171c-0.766-7.78-4.099-14.802-9.106-20.272c0.276-0.857,0.465-1.754,0.465-2.706
			c0-27.952-32.854-51.007-79.356-58.843c0.491-12.806,8.092-49.847,74.732-83.164c4.357-2.179,6.122-7.474,3.944-11.831
			c-2.187-4.357-7.474-6.114-11.831-3.944c-71.615,35.808-83.039,78.131-84.329,96.769c-5.784-0.465-11.724-0.708-17.785-0.708
			c-9.082,0-17.874,0.56-26.297,1.587c-0.992-18.16-11.624-61.267-84.385-97.647c-4.357-2.17-9.644-0.413-11.831,3.944
			c-2.179,4.357-0.413,9.653,3.944,11.831c69.79,34.89,74.827,73.862,74.758,84.809c-41.93,9.093-70.814,30.992-70.814,57.199
			c0,0.952,0.189,1.849,0.467,2.706c-5.474,5.978-8.906,13.82-9.22,22.465c-86.912-62.817-114.023-61.566-120.64-59.364
			C4.366,144.888,0,151.001,0,158.802c0,27.576,60.488,85.459,123.568,110.733C60.488,294.81,0,352.694,0,380.269
			c0,7.801,4.366,13.915,11.693,16.36c1.455,0.482,3.556,1.18,7.044,1.18c12.324,0,41.969-8.764,121.531-66.58
			c2.706,3.296,5.461,6.073,9.179,8.214c2.045,53.511,45.637,96.937,96.336,101.324v44.483c0,4.874,3.944,8.817,8.817,8.817
			c4.874,0,8.817-3.944,8.817-8.817v-44.483c52.904-4.387,95.393-47.813,97.438-101.324c3.823-2.202,7.474-5.085,10.223-8.501
			c79.849,58.079,109.707,66.875,122.063,66.875c3.496,0,5.675-0.706,7.138-1.197c7.319-2.437,11.719-8.55,11.719-16.352
			C512,352.411,450.305,293.637,386.534,268.784z M17.566,159.087c13.107-3.509,73.251,33.354,124.87,72.19
			c-5.86,5.937-9.594,13.936-10.077,22.79C66.225,228.833,16.666,172.313,17.566,159.087z M132.26,308.904
			c0,2.032,0.211,4.013,0.543,5.95c-65.57,47.871-105.038,67.385-115.246,65.088c-0.827-13.854,52.947-74.543,123.15-97.947
			c0.728-0.241,1.38-0.594,1.996-0.995c0.51,0.508,1.057,0.975,1.599,1.451C136.938,288.918,132.26,298.364,132.26,308.904z
			 M490.689,159.121c0.788,13.09-47.191,67.982-111.702,93.74c-0.805-9.054-5.059-17.112-11.428-22.904
			C418.419,191.85,476.69,156.075,490.689,159.121z M255.703,132.557c49.791,0,86.423,17.463,95.043,35.792
			c-2.245-0.448-4.561-0.859-6.938-0.859H167.599c-2.375,0-4.693,0.411-6.938,0.859C169.278,150.02,205.912,132.557,255.703,132.557
			z M255.703,423.194c-45.641,0-83.291-35.269-87.73-79.356h175.462C338.996,387.924,301.344,423.194,255.703,423.194z
			 M343.808,326.203H167.599c-9.765,0-17.704-7.913-17.704-17.635s7.939-17.635,17.704-17.635h176.209
			c9.764,0,17.703,7.913,17.703,17.635S353.572,326.203,343.808,326.203z M343.808,273.299H167.599
			c-9.765,0-17.704-7.913-17.704-17.635c0-9.722,7.939-17.635,17.704-17.635h176.209c9.764,0,17.703,7.913,17.703,17.635
			C361.511,265.386,353.572,273.299,343.808,273.299z M343.808,220.395H167.599c-9.765,0-17.704-7.913-17.704-17.635
			s7.939-17.635,17.704-17.635h176.209c9.764,0,17.703,7.913,17.703,17.635S353.572,220.395,343.808,220.395z M494.469,379.985
			c-9.437,2.467-49.363-16.976-115.801-65.544c0.286-1.808,0.478-3.649,0.478-5.537c0-10.539-4.676-19.985-12.04-26.452
			c0.633-0.555,1.264-1.117,1.853-1.716c0.715,0.517,1.49,0.967,2.368,1.259C441.59,305.425,495.407,366.208,494.469,379.985z"/>
	</g>
</g>
</svg>